<?xml version="1.0" encoding="UTF-8" standalone="no"?>
<svg
   xmlns:dc="http://purl.org/dc/elements/1.1/"
   xmlns:cc="http://creativecommons.org/ns#"
   xmlns:rdf="http://www.w3.org/1999/02/22-rdf-syntax-ns#"
   xmlns:svg="http://www.w3.org/2000/svg"
   xmlns="http://www.w3.org/2000/svg"
   xmlns:xlink="http://www.w3.org/1999/xlink"
   xmlns:sodipodi="http://sodipodi.sourceforge.net/DTD/sodipodi-0.dtd"
   xmlns:inkscape="http://www.inkscape.org/namespaces/inkscape"
   inkscape:export-ydpi="96"
   inkscape:export-xdpi="96"
   inkscape:export-filename="/Users/lhs/Documents/bb/woodelf/forest.png"
   inkscape:version="1.0beta2 (2b71d25, 2019-12-03)"
   sodipodi:docname="forest.svg"
   version="1.1"
   id="svg834"
   xml:space="preserve"
   width="263.56955"
   height="447.61386"
   viewBox="0 0 263.56954 447.61383"><sodipodi:namedview
   units="px"
   fit-margin-bottom="0"
   fit-margin-right="0"
   fit-margin-left="0"
   fit-margin-top="0"
   inkscape:document-rotation="0"
   inkscape:measure-end="0,0"
   inkscape:measure-start="0,0"
   inkscape:current-layer="svg834"
   inkscape:window-maximized="1"
   inkscape:window-y="25"
   inkscape:window-x="0"
   inkscape:cy="337.92044"
   inkscape:cx="610.65113"
   inkscape:zoom="0.93361748"
   showgrid="false"
   id="namedview849"
   inkscape:window-height="1300"
   inkscape:window-width="3440"
   inkscape:pageshadow="2"
   inkscape:pageopacity="0"
   guidetolerance="1"
   gridtolerance="1"
   objecttolerance="1"
   borderopacity="1"
   bordercolor="#666666"
   pagecolor="#ffffff" /><metadata
   id="metadata840"><rdf:RDF><cc:Work
       rdf:about=""><dc:format>image/svg+xml</dc:format><dc:type
         rdf:resource="http://purl.org/dc/dcmitype/StillImage" /><dc:title></dc:title></cc:Work></rdf:RDF></metadata><defs
   id="defs838"><clipPath
     clipPathUnits="userSpaceOnUse"
     id="clipPath852"><path
       inkscape:connector-curvature="0"
       d="M 0,980 H 1400 V 0 H 0 Z"
       id="path850" /></clipPath></defs><g
   transform="matrix(1.3333333,0,0,-1.3333333,-791.29494,-357.03645)"
   id="g854" /><g
   transform="matrix(1.3333333,0,0,-1.3333333,-771.36881,-285.42686)"
   id="g1106" /><g
   transform="matrix(1.3333333,0,0,-1.3333333,38.292282,-252.86299)"
   id="g1346" /><g
   transform="matrix(1.3333333,0,0,-1.3333333,-761.73707,192.49313)"
   id="g1642" /><g
   transform="matrix(1.3333333,0,0,-1.3333333,463.00428,-226.07579)"
   id="g2074" /><g
   transform="matrix(1.3333333,0,0,-1.3333333,-495.50401,360.38939)"
   id="g2130" /><g
   transform="matrix(1.3333333,0,0,-1.3333333,56.019482,338.50446)"
   id="g2182" /><g
   transform="matrix(1.3333333,0,0,-1.3333333,57.893282,329.23219)"
   id="g2206" /><g
   transform="matrix(1.3333333,0,0,-1.3333333,-11.955718,211.30753)"
   id="g2238" /><text
   id="text4766"
   y="203.26651"
   x="316.85571"
   style="font-style:normal;font-variant:normal;font-weight:normal;font-stretch:normal;font-size:51.3755px;line-height:125%;font-family:'Bodoni Ornaments';-inkscape-font-specification:'Bodoni Ornaments';text-align:start;letter-spacing:8.3px;word-spacing:0px;writing-mode:lr-tb;text-anchor:start;fill:#000000;fill-opacity:1;stroke:none;stroke-width:1px;stroke-linecap:butt;stroke-linejoin:miter;stroke-opacity:1"
   xml:space="preserve"><tspan
     y="203.26651"
     x="316.85571"
     id="tspan4764"
     sodipodi:role="line" /></text>
<rect
   style="fill:#ffffff"
   id="rect39"
   width="263.56955"
   height="447.61386"
   x="0"
   y="0" /><path
   sodipodi:nodetypes="scccccccccccccccccccccccccccccccccccccccccccccscccccccccscccccsccccccccccccccccccc"
   inkscape:connector-curvature="0"
   d="m 129.81207,18.088836 c -5.2527,0 -10.5061,2.49873 -15.1699,7.49805 0,0 -10.5204,-4.72735 -19.539095,-0.45117 -9.0188,4.275059 -11.4975,15.662989 -11.4975,15.662989 -4.2149,-2.33204 -8.2085,-1.16371 -11.3833,-0.48331 -9.0034,3.65334 -12.4012,7.51228 -15.3633,14.50391 -10.7729,5.36007 -14.3092,22.02122 -12.2403,27.77344 -6.9106,-0.77658 -14.9307,6.55038 -16.6523,16.24609 -1.8359,10.353345 0.668,18.458985 0.668,18.458985 0,0 -8.8513,2.24769 -9.1856,15.07618 -0.3335,12.82739 3.174,14.40234 3.1738,14.40234 0,0 -9.1855,16.42878 -4.6757,34.88281 5.7204,23.41425 22.0597,31.32921 36.0722,14.70703 0.2378,3.57999 1.2266,7.03822 2.9375,10.27344 4.2833,8.1051 11.7368,10.90309 17.3672,3.30469 6.0004,-8.19083 0.1015,-19.59565 -8.5312,-14.66992 11.8704,0.33726 7.0365,20.176 -2.0332,12.76175 -12.7953,-10.93826 3.3775,-39.84363 10.3984,-46.79102 3.0711,-3.03913 6.5813,-6.17315 9.8379,-8.2793 8.3509,-5.40083 21.377895,2.25193 28.726595,13.05469 2.8103,4.13076 4.2032,8.98185 4.8711,13.78125 1.2834,9.21491 0.9801,27.90586 -0.709,41.51172 -1.071,14.36832 -2.347,22.37717 -8.8492,32.49414 -2.7101,3.42915 -6.0546,5.14453 -10.037195,5.14453 -17.2294,-0.40307 -39.4236,-19.56087 -53.1621,-19.82812 -10.8445,0 -14.7961,8.8213 -15.9023,26.46484 0.9083,0 6.9197,-19.00226 16.998,-17.91992 17.8605,2.04615 38.0071,19.46302 57.576195,19.82812 13.2728,0 20.8296,-15.09327 21.9629,-32.21093 V 156.3291 c -5.3034,-4.96121 -10.2639,-11.46691 -11.4121,-14.38867 -3.2136,-9.56866 1.3616,-13.80752 3.5801,-25.10359 0.2984,-3.06558 -0.2024,-6.29991 -1.8789,-9.59571 -3.3744,-6.63124 -9.5462,-9.157225 -14.1075,-2.9082 -2.027995,2.78028 -3.303795,7.75957 -0.8515,10.70508 0.5517,0.66202 0.5052,0.52284 1.2344,0.79492 -0.9213,-2.72299 -1.8401,-4.15299 -0.2559,-7.28906 2.0403,-4.03713 6.0773,-5.42415 8.998,-1.875 5.4842,6.66319 2.4852,13.30071 -1.9453,18.05273 -4.4019,3.42468 -7.0376,3.88605 -9.804695,4.61524 -20.2182,6.95314 -29.1791,14.83049 -36.121,31.39648 -1.9963,6.23435 -7.4229,21.17277 -10.772,26.17501 -15.261,23.0338 -29.2634,-1.94105 -15.8005,-2.6889 1.8417,-0.0385 6.2278,1.57277 7.4142,3.17991 0.7103,-4.13883 -0.5734,-5.97176 -3.748,-8.47852 0.096,-0.44722 5.7351,-0.15775 9.238,-3.95362 5.4058,-6.4208 5.1401,-6.23312 4.2276,-5.65661 -2.473,1.56247 -6.7779,2.81293 -10.1316,2.78601 -18.0092,-3.03866 -6.9751,-22.87967 6.6552,-18.0625 -11.509,-15.34485 -13.6573,-31.17052 -6.8212,-42.91601 2.9016,-5.07932 4.9029,-7.4233 12.123,-7.93943 3.8683,-0.0147 8.4937,1.82334 12.9258,5.16211 2.0955,-11.042235 -11.9698,-16.233245 -6.7229,-28.164065 3.882,-7.71625 9.0277,-1.84414 10.6446,2.79883 0.3091,-1.19516 0.3458,-0.97908 0.3008,-2.29102 -0.1374,-4.13782 -0.9163,-10.35109 -2.6016,-15.75781 9.2401,-2.11613 22.0043,5.77881 25.0957,10.88884 3.4145,5.64422 -2.9549,-6.71182 -3.3125,-13.04316 -0.971,-25.53518 38.810895,-15.02468 26.825795,2.45283 3.4387,0.3493 11.1886,-2.34658 10.1918,-7.16767 -5.8768,-11.92452 -6.0356,-17.79081 3.1484,-27.00391 V 18.088836 Z M 48.835475,265.95993 c -13.4953,0 -18.7961,8.82131 -19.9023,26.46485 5.4814,-8.12669 6.664,-17.62171 17.0801,-17.91992 17.8068,2.08592 37.9554,19.46358 57.494095,19.82812 11.4979,0 24.1334,-6.31019 28.2774,-18.91016 v -6.32421 c -0.2416,1.28466 -0.3391,1.76652 -0.4727,2.28906 -1.4345,3.73851 -4.7792,7.09724 -7.2773,9.25586 -4.3339,4.0934 -14.0836,5.22656 -18.1211,5.22656 C 88.739475,285.377 67.367475,266.30936 48.835475,265.95993 Z m 0,26.83594 c -13.4953,0 -18.7961,8.82125 -19.9023,26.46485 5.4814,-8.12672 6.664,-17.62172 17.0801,-17.91993 17.8067,2.08594 37.9555,19.46359 57.494095,19.82813 11.4976,0 24.133,-6.31088 28.2774,-18.91016 v -5.82031 c -0.8962,4.45258 -4.6025,8.41858 -7.75,11.04101 -5.1458,3.48447 -14.0836,5.22657 -18.1211,5.22657 -17.293095,-0.43094 -38.455595,-19.563 -57.078195,-19.91016 z"
   style="fill:#e53233;fill-opacity:1;fill-rule:evenodd;stroke:none;stroke-width:0.94891"
   id="path1648" /><g
   id="g980"
   transform="translate(16.749975,18.088836)"><path
     d="M 12.4129,322.67934 H 8.7102 q -0.6569,-0.34211 -0.6569,-0.58647 0,-0.3421 0.6569,-0.63533 h 32.966 v 27.17299 q 0,0.24437 -0.1793,0.39098 -0.1791,0.14662 -0.4776,0.14662 -0.3584,0 -0.5376,-0.19549 -0.1791,-0.19549 -0.2388,-1.51504 -0.2986,-6.06017 -2.5083,-12.95116 -2.2097,-6.93987 -4.1805,-9.43236 -1.0152,-1.27068 -2.4485,-1.80827 -1.4333,-0.58647 -4.4194,-0.58647 h -2.0306 v 34.40611 q 2.807,-0.1955 4.7777,-2.78573 2.9861,-3.95866 2.9861,-12.26694 v -2.68799 q 0,-0.29323 0.1792,-0.43984 0.1791,-0.14662 0.4777,-0.14662 0.2987,0 0.4778,0.19549 0.1792,0.14661 0.1792,0.39097 v 36.65423 q 0,0.29323 -0.1792,0.43985 -0.1791,0.14662 -0.4778,0.14662 l -0.418,-0.14662 q -0.2389,-0.19548 -0.2389,-0.43985 v -4.34963 q 0,-7.08648 -2.9263,-10.80078 -1.9111,-2.39474 -4.8375,-2.49249 v 35.33468 h 3.7625 q 0.2986,0 0.4778,0.19549 0.1791,0.14662 0.1791,0.43985 0,0.29323 -0.1791,0.48872 -0.1792,0.14662 -0.4778,0.14662 H 8.7102 q -0.4181,0 -0.6569,-0.1955 -0.239,-0.19548 -0.239,-0.43984 0,-0.29323 0.239,-0.43985 0.2388,-0.19549 0.6569,-0.19549 h 3.7027 z"
     style="font-style:normal;font-variant:normal;font-weight:normal;font-stretch:normal;font-size:medium;line-height:125%;font-family:Onyx;-inkscape-font-specification:Onyx;text-align:start;letter-spacing:-1.6199px;word-spacing:0px;writing-mode:lr-tb;text-anchor:start;fill:#e53233;fill-opacity:1;stroke:none;stroke-width:2.15362px;stroke-linecap:butt;stroke-linejoin:miter;stroke-opacity:1"
     id="path4728"
     inkscape:connector-curvature="0" /><path
     d="m 78.2859,349.90122 v 18.03387 q 0,15.59026 -6.0318,22.77449 -4.1805,4.98498 -10.4512,4.98498 -4.2402,0 -7.8234,-2.49249 -3.5833,-2.49249 -5.6138,-7.33085 -3.2847,-7.77069 -3.2847,-17.25191 v -21.11284 q 0,-14.75943 6.0319,-21.89479 4.1804,-4.9361 10.3316,-4.9361 2.9861,0 5.4944,1.12406 2.5083,1.07519 4.4791,3.22557 1.9708,2.10151 3.5236,5.62032 1.6124,3.46993 2.2693,7.2331 1.075,6.40227 1.075,12.02259 z M 57.6822,387.6795 q 0,3.81204 1.4333,5.52257 1.075,1.22181 2.6277,1.22181 1.493,0 2.6277,-1.07519 1.1347,-1.12406 1.1347,-3.1767 V 327.5177 q 0,-2.6391 -1.493,-4.20302 -1.0153,-1.12406 -2.5681,-1.12406 -1.3735,0 -2.3887,1.07519 -1.3736,1.46617 -1.3736,4.25189 z"
     style="font-style:normal;font-variant:normal;font-weight:normal;font-stretch:normal;font-size:medium;line-height:125%;font-family:Onyx;-inkscape-font-specification:Onyx;text-align:start;letter-spacing:-1.6199px;word-spacing:0px;writing-mode:lr-tb;text-anchor:start;fill:#e53233;fill-opacity:1;stroke:none;stroke-width:2.15362px;stroke-linecap:butt;stroke-linejoin:miter;stroke-opacity:1"
     id="path4730"
     inkscape:connector-curvature="0" /><path
     d="m 83.9602,322.67934 h -3.5235 c -0.438,-0.19548 -0.657,-0.40727 -0.657,-0.63534 0,-0.19548 0.219,-0.39098 0.657,-0.58646 h 18.8121 c 4.6582,0 8.6994,1.62907 12.1234,4.88722 3.424,3.22558 5.136,7.64037 5.136,13.2444 0,3.22557 -0.6569,6.09275 -1.9709,8.60153 -1.3139,2.50877 -3.2647,4.5777 -5.8526,6.20677 -1.5528,0.97745 -3.9616,1.92231 -7.2262,2.8346 3.6628,0.87971 6.211,1.72682 7.6443,2.54136 2.4286,1.36843 4.2202,3.0138 5.3748,4.9361 1.1945,1.92231 1.7916,4.4148 1.7916,7.47746 v 33.6289 c 0,0.81454 0.1593,1.38472 0.4778,1.71054 0.3186,0.32581 0.7367,0.48871 1.2542,0.48871 0.7963,0 1.5129,-0.40727 2.1499,-1.2218 1.0352,-1.30326 1.6921,-3.64913 1.9708,-7.03761 0.039,-0.58647 0.1394,-0.97745 0.2987,-1.17294 0.1991,-0.19548 0.398,-0.29323 0.5971,-0.29323 0.2389,0 0.438,0.11404 0.5972,0.34211 0.1991,0.26065 0.2986,0.74937 0.2986,1.46617 0,3.61654 -1.075,6.41855 -3.2249,8.40603 -2.1101,1.95489 -4.7777,2.93233 -8.0026,2.93233 -2.8666,0 -5.0364,-0.60275 -6.5096,-1.80826 -1.4731,-1.20552 -2.2097,-2.91605 -2.2097,-5.1316 v -41.59508 c 0,-2.21554 -0.6768,-3.698 -2.0305,-4.44738 -0.7963,-0.42357 -2.6675,-0.63535 -5.6137,-0.63535 v 35.87228 h 2.9263 c 0.3185,0 0.5573,0.0652 0.7166,0.19549 0.1991,0.13032 0.2986,0.27694 0.2986,0.43985 0,0.16291 -0.099,0.30952 -0.2986,0.43984 -0.1593,0.13034 -0.3981,0.1955 -0.7166,0.1955 H 80.4367 c -0.2389,0 -0.438,-0.0489 -0.5972,-0.14662 -0.1594,-0.13033 -0.239,-0.29324 -0.239,-0.48872 0,-0.19549 0.079,-0.3421 0.239,-0.43985 0.1592,-0.13033 0.3583,-0.19549 0.5972,-0.19549 h 3.5235 z m 12.3623,0 v 33.81963 h 2.9263 c 1.3934,0 2.5281,-0.39098 3.404,-1.17293 0.876,-0.78196 1.3139,-1.92231 1.3139,-3.42106 v -25.36473 c 0,-1.46617 -0.3185,-2.4762 -0.9556,-3.03008 -0.637,-0.55389 -1.8911,-0.83083 -3.7623,-0.83083 z"
     style="font-style:normal;font-variant:normal;font-weight:normal;font-stretch:normal;font-size:medium;line-height:125%;font-family:Onyx;-inkscape-font-specification:Onyx;text-align:start;letter-spacing:-1.6199px;word-spacing:0px;writing-mode:lr-tb;text-anchor:start;fill:#e53233;fill-opacity:1;stroke:none;stroke-width:2.15362px;stroke-linecap:butt;stroke-linejoin:miter;stroke-opacity:1"
     id="path4732"
     inkscape:connector-curvature="0"
     sodipodi:nodetypes="ccscscssccccsscscccscscscsscccscscsscscsccccscsscsc" /><path
     d="m 157.2781,390.70958 q -2.0306,1.17294 -4.1805,2.93235 -2.0902,1.71053 -2.568,1.71053 -0.1791,0 -0.2986,-0.14662 -0.1195,-0.14662 -0.1195,-0.63534 v -30.69181 q 0,-0.19549 0.1195,-0.29323 0.1792,-0.14662 0.3583,-0.14662 0.2986,0 0.5375,0.29323 0.418,0.43986 0.418,0.97745 v 2.10151 q 0,6.10904 2.3292,13.9286 2.3291,7.81958 6.0916,11.14289 1.8512,1.66166 4.2998,1.66166 2.8069,0 4.8971,-2.15038 2.0903,-2.19925 2.0903,-6.59776 0,-4.20302 -1.9111,-8.89476 -2.5083,-6.25565 -11.1081,-20.03765 -5.3749,-8.60152 -6.8679,-12.41356 -1.4333,-3.86091 -1.4333,-7.47747 0,-7.18422 4.1208,-11.24062 4.1804,-4.0564 9.4956,-4.0564 4.5387,0 8.1817,3.95865 2.9861,-1.31955 5.793,-3.27444 0.9555,-0.68421 1.2541,-0.68421 0.1195,0 0.239,0.0977 0.1193,0.19549 0.1193,0.68422 v 26.53765 q 0,0.5376 -0.2986,0.87971 -0.1791,0.19548 -0.4778,0.19548 -0.3583,0 -0.5374,-0.24435 -0.1792,-0.24437 -0.7166,-3.51881 -2.4487,-15.19929 -6.5096,-20.13539 -2.3889,-2.8346 -5.4347,-2.8346 -2.2693,0 -3.9416,1.66166 -1.6721,1.66166 -1.6721,4.88723 0,5.81581 8.1221,19.10907 l 5.2553,8.6504 q 5.4346,8.94364 7.2264,14.22184 1.7916,5.22934 1.7916,9.38348 0,7.23311 -4.3596,11.33838 -4.3598,4.10527 -10.2124,4.10527 -6.3304,0 -10.0928,-4.98498 z"
     style="font-style:normal;font-variant:normal;font-weight:normal;font-stretch:normal;font-size:medium;line-height:125%;font-family:Onyx;-inkscape-font-specification:Onyx;text-align:start;letter-spacing:-1.6199px;word-spacing:0px;writing-mode:lr-tb;text-anchor:start;fill:#e53233;fill-opacity:1;stroke:none;stroke-width:2.15362px;stroke-linecap:butt;stroke-linejoin:miter;stroke-opacity:1"
     id="path4734"
     inkscape:connector-curvature="0" /><path
     d="m 196.6947,322.67934 h -1.2542 q -1.3138,0 -2.2694,0.68421 -1.4333,1.02632 -2.8068,4.54513 -2.2097,5.62031 -3.7625,13.48875 -1.5527,7.81958 -1.5527,9.92108 v 1.12406 q 0,0.39098 -0.2389,0.63534 -0.2388,0.1955 -0.5374,0.1955 -0.3583,0 -0.5376,-0.1955 -0.2985,-0.29323 -0.2985,-0.63534 v -30.98503 h 38.8186 v 30.98503 q 0,0.34211 -0.2389,0.58647 -0.2389,0.19549 -0.5972,0.19549 -0.2986,0 -0.5375,-0.19549 -0.2388,-0.24436 -0.2388,-0.58647 v -1.90601 q 0,-2.78573 -1.732,-10.36094 -1.6721,-7.62408 -3.8818,-12.80454 -1.4333,-3.32332 -2.3889,-4.00753 -0.8958,-0.68421 -1.7319,-0.68421 h -1.9111 v 71.01146 h 4.6583 q 0.6569,0.34211 0.6569,0.63534 0,0.29323 -0.6569,0.63534 H 191.499 q -0.2986,0 -0.4778,-0.14662 -0.1791,-0.19549 -0.1791,-0.48872 0,-0.29323 0.1791,-0.43985 0.1792,-0.19549 0.4778,-0.19549 h 5.1957 z"
     style="font-style:normal;font-variant:normal;font-weight:normal;font-stretch:normal;font-size:medium;line-height:125%;font-family:Onyx;-inkscape-font-specification:Onyx;text-align:start;letter-spacing:-1.6199px;word-spacing:0px;writing-mode:lr-tb;text-anchor:start;fill:#e53233;fill-opacity:1;stroke:none;stroke-width:2.15362px;stroke-linecap:butt;stroke-linejoin:miter;stroke-opacity:1"
     id="path4736"
     inkscape:connector-curvature="0" /><g
     id="text4708"
     style="font-style:normal;font-variant:normal;font-weight:normal;font-stretch:normal;font-size:136.246px;line-height:125%;font-family:'.Helvetica LT MM';-inkscape-font-specification:'.Helvetica LT MM';text-align:start;letter-spacing:22.0113px;word-spacing:0px;writing-mode:lr-tb;text-anchor:start;fill:#e53233;fill-opacity:1;stroke:none;stroke-width:2.65197px;stroke-linecap:butt;stroke-linejoin:miter;stroke-opacity:1"
     transform="matrix(0.90309565,0,0,1.0348691,-1171.9112,-418.4827)"
     aria-label="e"><path
       inkscape:connector-curvature="0"
       id="path4739"
       style="font-style:normal;font-variant:normal;font-weight:normal;font-stretch:normal;font-family:Onyx;-inkscape-font-specification:Onyx;fill:#e53233;fill-opacity:1;stroke-width:2.65197px"
       d="m 1441.4058,750.92626 v 24.74786 q 0,5.78781 1.3305,7.65055 0.9979,1.39706 3.2598,1.39706 3.7255,0 6.6526,-4.19117 4.8565,-7.05181 5.1891,-19.22616 0.066,-3.99159 0.3326,-4.52381 0.3327,-0.53221 0.8649,-0.53221 0.4657,0 0.7318,0.39916 0.3326,0.53221 0.3326,2.52801 0,11.84172 -4.1912,19.95795 -4.1246,8.04971 -11.1764,8.04971 -6.5861,0 -10.9104,-6.18697 -4.3242,-6.25349 -4.3242,-27.00976 v -9.77939 q 0,-15.89984 5.8543,-24.14913 4.1912,-5.85433 10.1121,-5.85433 7.0518,0 10.8438,7.5175 3.8585,7.51749 3.8585,18.29479 v 10.91034 z m 6.9187,-1.79621 v -28.34029 q 0,-2.72759 -1.0644,-4.12465 -0.7318,-0.99789 -2.1954,-0.99789 -1.4636,0 -2.5945,1.264 -1.0644,1.264 -1.0644,3.85854 v 28.34029 z" /></g></g><use
   height="100%"
   width="100%"
   transform="matrix(-1,0,0,1,263.56954,4.1491699e-7)"
   id="use1396"
   xlink:href="#path1648"
   y="0"
   x="0" /><g
   id="g923"
   transform="translate(-169.56647,15.059296)"><path
     inkscape:connector-curvature="0"
     id="path868"
     style="font-style:normal;font-variant:normal;font-weight:normal;font-stretch:normal;font-size:medium;line-height:125%;font-family:Onyx;-inkscape-font-specification:Onyx;text-align:start;letter-spacing:-1.6199px;word-spacing:0px;writing-mode:lr-tb;text-anchor:start;fill:#ffffff;fill-opacity:1;stroke:none;stroke-width:2.15362px;stroke-linecap:butt;stroke-linejoin:miter;stroke-opacity:1"
     d="m 462.29889,325.70888 h -3.7027 q -0.6569,-0.34211 -0.6569,-0.58647 0,-0.3421 0.6569,-0.63533 h 32.966 v 27.17299 q 0,0.24437 -0.1793,0.39098 -0.1791,0.14662 -0.4776,0.14662 -0.3584,0 -0.5376,-0.19549 -0.1791,-0.19549 -0.2388,-1.51504 -0.2986,-6.06017 -2.5083,-12.95116 -2.2097,-6.93987 -4.1805,-9.43236 -1.0152,-1.27068 -2.4485,-1.80827 -1.4333,-0.58647 -4.4194,-0.58647 h -2.0306 v 34.40611 q 2.807,-0.1955 4.7777,-2.78573 2.9861,-3.95866 2.9861,-12.26694 v -2.68799 q 0,-0.29323 0.1792,-0.43984 0.1791,-0.14662 0.4777,-0.14662 0.2987,0 0.4778,0.19549 0.1792,0.14661 0.1792,0.39097 v 36.65423 q 0,0.29323 -0.1792,0.43985 -0.1791,0.14662 -0.4778,0.14662 l -0.418,-0.14662 q -0.2389,-0.19548 -0.2389,-0.43985 v -4.34963 q 0,-7.08648 -2.9263,-10.80078 -1.9111,-2.39474 -4.8375,-2.49249 v 35.33468 h 3.7625 q 0.2986,0 0.4778,0.19549 0.1791,0.14662 0.1791,0.43985 0,0.29323 -0.1791,0.48872 -0.1792,0.14662 -0.4778,0.14662 h -19.7079 q -0.4181,0 -0.6569,-0.1955 -0.239,-0.19548 -0.239,-0.43984 0,-0.29323 0.239,-0.43985 0.2388,-0.19549 0.6569,-0.19549 h 3.7027 z" /><path
     inkscape:connector-curvature="0"
     id="path870"
     style="font-style:normal;font-variant:normal;font-weight:normal;font-stretch:normal;font-size:medium;line-height:125%;font-family:Onyx;-inkscape-font-specification:Onyx;text-align:start;letter-spacing:-1.6199px;word-spacing:0px;writing-mode:lr-tb;text-anchor:start;fill:#ffffff;fill-opacity:1;stroke:none;stroke-width:2.15362px;stroke-linecap:butt;stroke-linejoin:miter;stroke-opacity:1"
     d="m 528.17189,352.93076 v 18.03387 q 0,15.59026 -6.0318,22.77449 -4.1805,4.98498 -10.4512,4.98498 -4.2402,0 -7.8234,-2.49249 -3.5833,-2.49249 -5.6138,-7.33085 -3.2847,-7.77069 -3.2847,-17.25191 v -21.11284 q 0,-14.75943 6.0319,-21.89479 4.1804,-4.9361 10.3316,-4.9361 2.9861,0 5.4944,1.12406 2.5083,1.07519 4.4791,3.22557 1.9708,2.10151 3.5236,5.62032 1.6124,3.46993 2.2693,7.2331 1.075,6.40227 1.075,12.02259 z m -20.6037,37.77828 q 0,3.81204 1.4333,5.52257 1.075,1.22181 2.6277,1.22181 1.493,0 2.6277,-1.07519 1.1347,-1.12406 1.1347,-3.1767 v -62.65429 q 0,-2.6391 -1.493,-4.20302 -1.0153,-1.12406 -2.5681,-1.12406 -1.3735,0 -2.3887,1.07519 -1.3736,1.46617 -1.3736,4.25189 z" /><path
     sodipodi:nodetypes="ccscscssccccsscscccscscscsscccscscsscscsccccscsscsc"
     inkscape:connector-curvature="0"
     id="path872"
     style="font-style:normal;font-variant:normal;font-weight:normal;font-stretch:normal;font-size:medium;line-height:125%;font-family:Onyx;-inkscape-font-specification:Onyx;text-align:start;letter-spacing:-1.6199px;word-spacing:0px;writing-mode:lr-tb;text-anchor:start;fill:#ffffff;fill-opacity:1;stroke:none;stroke-width:2.15362px;stroke-linecap:butt;stroke-linejoin:miter;stroke-opacity:1"
     d="m 533.84619,325.70888 h -3.5235 c -0.438,-0.19548 -0.657,-0.40727 -0.657,-0.63534 0,-0.19548 0.219,-0.39098 0.657,-0.58646 h 18.8121 c 4.6582,0 8.6994,1.62907 12.1234,4.88722 3.424,3.22558 5.136,7.64037 5.136,13.2444 0,3.22557 -0.6569,6.09275 -1.9709,8.60153 -1.3139,2.50877 -3.2647,4.5777 -5.8526,6.20677 -1.5528,0.97745 -3.9616,1.92231 -7.2262,2.8346 3.6628,0.87971 6.211,1.72682 7.6443,2.54136 2.4286,1.36843 4.2202,3.0138 5.3748,4.9361 1.1945,1.92231 1.7916,4.4148 1.7916,7.47746 v 33.6289 c 0,0.81454 0.1593,1.38472 0.4778,1.71054 0.3186,0.32581 0.7367,0.48871 1.2542,0.48871 0.7963,0 1.5129,-0.40727 2.1499,-1.2218 1.0352,-1.30326 1.6921,-3.64913 1.9708,-7.03761 0.039,-0.58647 0.1394,-0.97745 0.2987,-1.17294 0.1991,-0.19548 0.398,-0.29323 0.5971,-0.29323 0.2389,0 0.438,0.11404 0.5972,0.34211 0.1991,0.26065 0.2986,0.74937 0.2986,1.46617 0,3.61654 -1.075,6.41855 -3.2249,8.40603 -2.1101,1.95489 -4.7777,2.93233 -8.0026,2.93233 -2.8666,0 -5.0364,-0.60275 -6.5096,-1.80826 -1.4731,-1.20552 -2.2097,-2.91605 -2.2097,-5.1316 v -41.59508 c 0,-2.21554 -0.6768,-3.698 -2.0305,-4.44738 -0.7963,-0.42357 -2.6675,-0.63535 -5.6137,-0.63535 v 35.87228 h 2.9263 c 0.3185,0 0.5573,0.0652 0.7166,0.19549 0.1991,0.13032 0.2986,0.27694 0.2986,0.43985 0,0.16291 -0.099,0.30952 -0.2986,0.43984 -0.1593,0.13034 -0.3981,0.1955 -0.7166,0.1955 h -18.8121 c -0.2389,0 -0.438,-0.0489 -0.5972,-0.14662 -0.1594,-0.13033 -0.239,-0.29324 -0.239,-0.48872 0,-0.19549 0.079,-0.3421 0.239,-0.43985 0.1592,-0.13033 0.3583,-0.19549 0.5972,-0.19549 h 3.5235 z m 12.3623,0 v 33.81963 h 2.9263 c 1.3934,0 2.5281,-0.39098 3.404,-1.17293 0.876,-0.78196 1.3139,-1.92231 1.3139,-3.42106 v -25.36473 c 0,-1.46617 -0.3185,-2.4762 -0.9556,-3.03008 -0.637,-0.55389 -1.8911,-0.83083 -3.7623,-0.83083 z" /><path
     inkscape:connector-curvature="0"
     id="path874"
     style="font-style:normal;font-variant:normal;font-weight:normal;font-stretch:normal;font-size:medium;line-height:125%;font-family:Onyx;-inkscape-font-specification:Onyx;text-align:start;letter-spacing:-1.6199px;word-spacing:0px;writing-mode:lr-tb;text-anchor:start;fill:#ffffff;fill-opacity:1;stroke:none;stroke-width:2.15362px;stroke-linecap:butt;stroke-linejoin:miter;stroke-opacity:1"
     d="m 607.16409,393.73912 q -2.0306,1.17294 -4.1805,2.93235 -2.0902,1.71053 -2.568,1.71053 -0.1791,0 -0.2986,-0.14662 -0.1195,-0.14662 -0.1195,-0.63534 v -30.69181 q 0,-0.19549 0.1195,-0.29323 0.1792,-0.14662 0.3583,-0.14662 0.2986,0 0.5375,0.29323 0.418,0.43986 0.418,0.97745 v 2.10151 q 0,6.10904 2.3292,13.9286 2.3291,7.81958 6.0916,11.14289 1.8512,1.66166 4.2998,1.66166 2.8069,0 4.8971,-2.15038 2.0903,-2.19925 2.0903,-6.59776 0,-4.20302 -1.9111,-8.89476 -2.5083,-6.25565 -11.1081,-20.03765 -5.3749,-8.60152 -6.8679,-12.41356 -1.4333,-3.86091 -1.4333,-7.47747 0,-7.18422 4.1208,-11.24062 4.1804,-4.0564 9.4956,-4.0564 4.5387,0 8.1817,3.95865 2.9861,-1.31955 5.793,-3.27444 0.9555,-0.68421 1.2541,-0.68421 0.1195,0 0.239,0.0977 0.1193,0.19549 0.1193,0.68422 v 26.53765 q 0,0.5376 -0.2986,0.87971 -0.1791,0.19548 -0.4778,0.19548 -0.3583,0 -0.5374,-0.24435 -0.1792,-0.24437 -0.7166,-3.51881 -2.4487,-15.19929 -6.5096,-20.13539 -2.3889,-2.8346 -5.4347,-2.8346 -2.2693,0 -3.9416,1.66166 -1.6721,1.66166 -1.6721,4.88723 0,5.81581 8.1221,19.10907 l 5.2553,8.6504 q 5.4346,8.94364 7.2264,14.22184 1.7916,5.22934 1.7916,9.38348 0,7.23311 -4.3596,11.33838 -4.3598,4.10527 -10.2124,4.10527 -6.3304,0 -10.0928,-4.98498 z" /><path
     inkscape:connector-curvature="0"
     id="path876"
     style="font-style:normal;font-variant:normal;font-weight:normal;font-stretch:normal;font-size:medium;line-height:125%;font-family:Onyx;-inkscape-font-specification:Onyx;text-align:start;letter-spacing:-1.6199px;word-spacing:0px;writing-mode:lr-tb;text-anchor:start;fill:#ffffff;fill-opacity:1;stroke:none;stroke-width:2.15362px;stroke-linecap:butt;stroke-linejoin:miter;stroke-opacity:1"
     d="m 646.58069,325.70888 h -1.2542 q -1.3138,0 -2.2694,0.68421 -1.4333,1.02632 -2.8068,4.54513 -2.2097,5.62031 -3.7625,13.48875 -1.5527,7.81958 -1.5527,9.92108 v 1.12406 q 0,0.39098 -0.2389,0.63534 -0.2388,0.1955 -0.5374,0.1955 -0.3583,0 -0.5376,-0.1955 -0.2985,-0.29323 -0.2985,-0.63534 v -30.98503 h 38.8186 v 30.98503 q 0,0.34211 -0.2389,0.58647 -0.2389,0.19549 -0.5972,0.19549 -0.2986,0 -0.5375,-0.19549 -0.2388,-0.24436 -0.2388,-0.58647 v -1.90601 q 0,-2.78573 -1.732,-10.36094 -1.6721,-7.62408 -3.8818,-12.80454 -1.4333,-3.32332 -2.3889,-4.00753 -0.8958,-0.68421 -1.7319,-0.68421 h -1.9111 v 71.01146 h 4.6583 q 0.6569,0.34211 0.6569,0.63534 0,0.29323 -0.6569,0.63534 h -22.1565 q -0.2986,0 -0.4778,-0.14662 -0.1791,-0.19549 -0.1791,-0.48872 0,-0.29323 0.1791,-0.43985 0.1792,-0.19549 0.4778,-0.19549 h 5.1957 z" /><g
     aria-label="e"
     transform="matrix(0.90309565,0,0,1.0348691,-722.02518,-415.45316)"
     style="font-style:normal;font-variant:normal;font-weight:normal;font-stretch:normal;font-size:136.246px;line-height:125%;font-family:'.Helvetica LT MM';-inkscape-font-specification:'.Helvetica LT MM';text-align:start;letter-spacing:22.0113px;word-spacing:0px;writing-mode:lr-tb;text-anchor:start;fill:#ffffff;fill-opacity:1;stroke:none;stroke-width:2.65197px;stroke-linecap:butt;stroke-linejoin:miter;stroke-opacity:1"
     id="g880"><path
       d="m 1441.4058,750.92626 v 24.74786 q 0,5.78781 1.3305,7.65055 0.9979,1.39706 3.2598,1.39706 3.7255,0 6.6526,-4.19117 4.8565,-7.05181 5.1891,-19.22616 0.066,-3.99159 0.3326,-4.52381 0.3327,-0.53221 0.8649,-0.53221 0.4657,0 0.7318,0.39916 0.3326,0.53221 0.3326,2.52801 0,11.84172 -4.1912,19.95795 -4.1246,8.04971 -11.1764,8.04971 -6.5861,0 -10.9104,-6.18697 -4.3242,-6.25349 -4.3242,-27.00976 v -9.77939 q 0,-15.89984 5.8543,-24.14913 4.1912,-5.85433 10.1121,-5.85433 7.0518,0 10.8438,7.5175 3.8585,7.51749 3.8585,18.29479 v 10.91034 z m 6.9187,-1.79621 v -28.34029 q 0,-2.72759 -1.0644,-4.12465 -0.7318,-0.99789 -2.1954,-0.99789 -1.4636,0 -2.5945,1.264 -1.0644,1.264 -1.0644,3.85854 v 28.34029 z"
       style="font-style:normal;font-variant:normal;font-weight:normal;font-stretch:normal;font-family:Onyx;-inkscape-font-specification:Onyx;fill:#ffffff;fill-opacity:1;stroke-width:2.65197px"
       id="path878"
       inkscape:connector-curvature="0" /></g></g><g
   id="g914"
   transform="translate(-168.10261,8.2428461)"><path
     sodipodi:nodetypes="scccccccccccccccccccccccccccccccccccccccccccccscccccccccscccccsccccccccccccccccccc"
     inkscape:connector-curvature="0"
     d="m 561.48213,9.8459894 c -5.2527,0 -10.5061,2.4987296 -15.1699,7.4980496 0,0 -10.5204,-4.72735 -19.5391,-0.45117 -9.0188,4.27506 -11.4975,15.66299 -11.4975,15.66299 -4.2149,-2.33204 -8.2085,-1.16371 -11.3833,-0.48331 -9.0034,3.65334 -12.4012,7.51228 -15.3633,14.50391 -10.7729,5.36007 -14.3092,22.021221 -12.2403,27.773441 -6.9106,-0.77658 -14.9307,6.550379 -16.6523,16.246089 -1.8359,10.353341 0.668,18.458981 0.668,18.458981 0,0 -8.8513,2.24769 -9.1856,15.07618 -0.3335,12.82739 3.174,14.40234 3.1738,14.40234 0,0 -9.1855,16.42878 -4.6757,34.88281 5.7204,23.41425 22.0597,31.32921 36.0722,14.70703 0.2378,3.57999 1.2266,7.03822 2.9375,10.27344 4.2833,8.1051 11.7368,10.90309 17.3672,3.30469 6.0004,-8.19083 0.1015,-19.59565 -8.5312,-14.66992 11.8704,0.33726 7.0365,20.176 -2.0332,12.76175 -12.7953,-10.93826 3.3775,-39.84363 10.3984,-46.79102 3.0711,-3.03913 6.5813,-6.17315 9.8379,-8.2793 8.3509,-5.40083 21.3779,2.25193 28.7266,13.05469 2.8103,4.13076 4.2032,8.98185 4.8711,13.78125 1.2834,9.21491 0.9801,27.90586 -0.709,41.51172 -1.071,14.36832 -2.347,22.37717 -8.8492,32.49414 -2.7101,3.42915 -6.0546,5.14453 -10.0372,5.14453 -17.2294,-0.40307 -39.4236,-19.56087 -53.1621,-19.82812 -10.8445,0 -14.7961,8.8213 -15.9023,26.46484 0.9083,0 6.9197,-19.00226 16.998,-17.91992 17.8605,2.04615 38.0071,19.46302 57.5762,19.82812 13.2728,0 20.8296,-15.09327 21.9629,-32.21093 v -78.95704 c -5.3034,-4.96121 -10.2639,-11.46691 -11.4121,-14.38867 -3.2136,-9.56866 1.3616,-13.80752 3.5801,-25.10359 0.2984,-3.06558 -0.2024,-6.29991 -1.8789,-9.595711 -3.3744,-6.63124 -9.5462,-9.15722 -14.1075,-2.9082 -2.028,2.78028 -3.3038,7.759571 -0.8515,10.705081 0.5517,0.66202 0.5052,0.52284 1.2344,0.79492 -0.9213,-2.72299 -1.8401,-4.15299 -0.2559,-7.28906 2.0403,-4.037131 6.0773,-5.424151 8.998,-1.875001 5.4842,6.663191 2.4852,13.300711 -1.9453,18.052731 -4.4019,3.42468 -7.0376,3.88605 -9.8047,4.61524 -20.2182,6.95314 -29.1791,14.83049 -36.121,31.39648 -1.9963,6.23435 -7.4229,21.17277 -10.772,26.17501 -15.261,23.0338 -29.2634,-1.94105 -15.8005,-2.6889 1.8417,-0.0385 6.2278,1.57277 7.4142,3.17991 0.7103,-4.13883 -0.5734,-5.97176 -3.748,-8.47852 0.096,-0.44722 5.7351,-0.15775 9.238,-3.95362 5.4058,-6.4208 5.1401,-6.23312 4.2276,-5.65661 -2.473,1.56247 -6.7779,2.81293 -10.1316,2.78601 -18.0092,-3.03866 -6.9751,-22.87967 6.6552,-18.0625 -11.509,-15.34485 -13.6573,-31.17052 -6.8212,-42.91601 2.9016,-5.079321 4.9029,-7.423301 12.123,-7.939431 3.8683,-0.0147 8.4937,1.82334 12.9258,5.162111 2.0955,-11.042231 -11.9698,-16.233241 -6.7229,-28.16406 3.882,-7.71625 9.0277,-1.84414 10.6446,2.79883 0.3091,-1.19516 0.3458,-0.97908 0.3008,-2.29102 -0.1374,-4.13782 -0.9163,-10.35109 -2.6016,-15.75781 9.2401,-2.116131 22.0043,5.77881 25.0957,10.88884 3.4145,5.64422 -2.9549,-6.71182 -3.3125,-13.043161 -0.971,-25.53518 38.8109,-15.02468 26.8258,2.452831 3.4387,0.3493 11.1886,-2.346581 10.1918,-7.167671 -5.8768,-11.92452 -6.0356,-17.79081 3.1484,-27.00391 V 9.8459894 Z M 480.50553,257.71708 c -13.4953,0 -18.7961,8.82131 -19.9023,26.46485 5.4814,-8.12669 6.664,-17.62171 17.0801,-17.91992 17.8068,2.08592 37.9554,19.46358 57.4941,19.82812 11.4979,0 24.1334,-6.31019 28.2774,-18.91016 v -6.32421 c -0.2416,1.28466 -0.3391,1.76652 -0.4727,2.28906 -1.4345,3.73851 -4.7792,7.09724 -7.2773,9.25586 -4.3339,4.0934 -14.0836,5.22656 -18.1211,5.22656 -17.1742,-0.49309 -38.5462,-19.56073 -57.0782,-19.91016 z m 0,26.83594 c -13.4953,0 -18.7961,8.82125 -19.9023,26.46485 5.4814,-8.12672 6.664,-17.62172 17.0801,-17.91993 17.8067,2.08594 37.9555,19.46359 57.4941,19.82813 11.4976,0 24.133,-6.31088 28.2774,-18.91016 v -5.82031 c -0.8962,4.45258 -4.6025,8.41858 -7.75,11.04101 -5.1458,3.48447 -14.0836,5.22657 -18.1211,5.22657 -17.2931,-0.43094 -38.4556,-19.563 -57.0782,-19.91016 z"
     style="fill:#ffffff;fill-opacity:1;fill-rule:evenodd;stroke:none;stroke-width:0.94891"
     id="path908" /><path
     id="path910"
     style="fill:#ffffff;fill-opacity:1;fill-rule:evenodd;stroke:none;stroke-width:0.94891"
     d="m 565.43173,9.8459894 c 5.2527,0 10.5061,2.4987296 15.1699,7.4980496 0,0 10.5204,-4.72735 19.5391,-0.45117 9.0188,4.27506 11.4975,15.66299 11.4975,15.66299 4.2149,-2.33204 8.2085,-1.16371 11.3833,-0.48331 9.0034,3.65334 12.4012,7.51228 15.3633,14.50391 10.7729,5.36007 14.3092,22.021221 12.2403,27.773441 6.9106,-0.77658 14.9307,6.550379 16.6523,16.246089 1.8359,10.353341 -0.668,18.458981 -0.668,18.458981 0,0 8.8513,2.24769 9.1856,15.07618 0.3335,12.82739 -3.174,14.40234 -3.1738,14.40234 0,0 9.1855,16.42878 4.6757,34.88281 -5.7204,23.41425 -22.0597,31.32921 -36.0722,14.70703 -0.2378,3.57999 -1.2266,7.03822 -2.9375,10.27344 -4.2833,8.1051 -11.7368,10.90309 -17.3672,3.30469 -6.0004,-8.19083 -0.1015,-19.59565 8.5312,-14.66992 -11.8704,0.33726 -7.0365,20.176 2.0332,12.76175 12.7953,-10.93826 -3.3775,-39.84363 -10.3984,-46.79102 -3.0711,-3.03913 -6.5813,-6.17315 -9.8379,-8.2793 -8.3509,-5.40083 -21.3779,2.25193 -28.7266,13.05469 -2.8103,4.13076 -4.2032,8.98185 -4.8711,13.78125 -1.2834,9.21491 -0.9801,27.90586 0.709,41.51172 1.071,14.36832 2.347,22.37717 8.8492,32.49414 2.7101,3.42915 6.0546,5.14453 10.0372,5.14453 17.2294,-0.40307 39.4236,-19.56087 53.1621,-19.82812 10.8445,0 14.7961,8.8213 15.9023,26.46484 -0.9083,0 -6.9197,-19.00226 -16.998,-17.91992 -17.8605,2.04615 -38.0071,19.46302 -57.5762,19.82812 -13.2728,0 -20.8296,-15.09327 -21.9629,-32.21093 v -78.95704 c 5.3034,-4.96121 10.2639,-11.46691 11.4121,-14.38867 3.2136,-9.56866 -1.3616,-13.80752 -3.5801,-25.10359 -0.2984,-3.06558 0.2024,-6.29991 1.8789,-9.595711 3.3744,-6.63124 9.5462,-9.15722 14.1075,-2.9082 2.028,2.78028 3.3038,7.759571 0.8515,10.705081 -0.5517,0.66202 -0.5052,0.52284 -1.2344,0.79492 0.9213,-2.72299 1.8401,-4.15299 0.2559,-7.28906 -2.0403,-4.037131 -6.0773,-5.424151 -8.998,-1.875001 -5.4842,6.663191 -2.4852,13.300711 1.9453,18.052731 4.4019,3.42468 7.0376,3.88605 9.8047,4.61524 20.2182,6.95314 29.1791,14.83049 36.121,31.39648 1.9963,6.23435 7.4229,21.17277 10.772,26.17501 15.261,23.0338 29.2634,-1.94105 15.8005,-2.6889 -1.8417,-0.0385 -6.2278,1.57277 -7.4142,3.17991 -0.7103,-4.13883 0.5734,-5.97176 3.748,-8.47852 -0.096,-0.44722 -5.7351,-0.15775 -9.238,-3.95362 -5.4058,-6.4208 -5.1401,-6.23312 -4.2276,-5.65661 2.473,1.56247 6.7779,2.81293 10.1316,2.78601 18.0092,-3.03866 6.9751,-22.87967 -6.6552,-18.0625 11.509,-15.34485 13.6573,-31.17052 6.8212,-42.91601 -2.9016,-5.079321 -4.9029,-7.423301 -12.123,-7.939431 -3.8683,-0.0147 -8.4937,1.82334 -12.9258,5.162111 -2.0955,-11.042231 11.9698,-16.233241 6.7229,-28.16406 -3.882,-7.71625 -9.0277,-1.84414 -10.6446,2.79883 -0.3091,-1.19516 -0.3458,-0.97908 -0.3008,-2.29102 0.1374,-4.13782 0.9163,-10.35109 2.6016,-15.75781 -9.2401,-2.116131 -22.0043,5.77881 -25.0957,10.88884 -3.4145,5.64422 2.9549,-6.71182 3.3125,-13.043161 0.971,-25.53518 -38.8109,-15.02468 -26.8258,2.452831 -3.4387,0.3493 -11.1886,-2.346581 -10.1918,-7.167671 5.8768,-11.92452 6.0356,-17.79081 -3.1484,-27.00391 V 9.8459894 Z m 80.9766,247.8710906 c 13.4953,0 18.7961,8.82131 19.9023,26.46485 -5.4814,-8.12669 -6.664,-17.62171 -17.0801,-17.91992 -17.8068,2.08592 -37.9554,19.46358 -57.4941,19.82812 -11.4979,0 -24.1334,-6.31019 -28.2774,-18.91016 v -6.32421 c 0.2416,1.28466 0.3391,1.76652 0.4727,2.28906 1.4345,3.73851 4.7792,7.09724 7.2773,9.25586 4.3339,4.0934 14.0836,5.22656 18.1211,5.22656 17.1742,-0.49309 38.5462,-19.56073 57.0782,-19.91016 z m 0,26.83594 c 13.4953,0 18.7961,8.82125 19.9023,26.46485 -5.4814,-8.12672 -6.664,-17.62172 -17.0801,-17.91993 -17.8067,2.08594 -37.9555,19.46359 -57.4941,19.82813 -11.4976,0 -24.133,-6.31088 -28.2774,-18.91016 v -5.82031 c 0.8962,4.45258 4.6025,8.41858 7.75,11.04101 5.1458,3.48447 14.0836,5.22657 18.1211,5.22657 17.2931,-0.43094 38.4556,-19.563 57.0782,-19.91016 z"
     inkscape:connector-curvature="0"
     sodipodi:nodetypes="scccccccccccccccccccccccccccccccccccccccccccccscccccccccscccccsccccccccccccccccccc" /></g></svg>
